<svg id="Layer_1" data-name="Layer 1" xmlns="http://www.w3.org/2000/svg" viewBox="0 0 1080 1080"><defs><style>.cls-1{fill:#293c43;}</style></defs><path class="cls-1" d="M135.56,476.58V292.63H245.92v36.79H172.34v36.79h73.58V403H172.34v73.58ZM245.92,329.42h36.79v36.79H245.92Z"/><path class="cls-1" d="M393.07,439.79h73.58v36.79H356.29V292.63h36.78Z"/><path class="cls-1" d="M541.11,476.58V329.42H577.9v36.79h73.57V329.42h36.79V476.58H651.47V403H577.9v73.58ZM577.9,292.63v36.79h73.57V292.63Z"/><path class="cls-1" d="M761,292.63h36.78v36.79H761Zm36.78,36.79h36.79v36.79H797.74Zm36.79,147.16V366.21h36.79V476.58Zm36.79-147.16h36.79v36.79H871.32Zm36.79-36.79H944.9v36.79H908.11Z"/><path class="cls-1" d="M134.54,799V595.58H185.4v50.87H287.13V595.58H338V799H287.13V697.31H185.4V799ZM185.4,544.72v50.86H287.13V544.72Z"/><path class="cls-1" d="M438.5,799V544.72H591.09v50.86H489.36v50.87H591.09v50.86H489.36V799ZM540.23,697.31h50.86v50.86H540.23Zm50.86-101.73H642v50.87H591.09Zm0,152.59H642V799H591.09Z"/><path class="cls-1" d="M743.68,799V544.72h152.6v50.86H794.55V748.17H896.28V799ZM947.14,595.58V748.17H896.28V595.58Z"/></svg>