<svg width="1112" height="924" viewBox="0 0 1112 924" fill="none" xmlns="http://www.w3.org/2000/svg">
<path d="M748 7.08667H674.339L593.212 186.554L511.587 7.08667H437.926L558.87 253.063V397.164H627.056V253.063L748 7.08667Z" fill="#356969"/>
<path d="M1112 479.134C1112 412.049 1085.79 356.464 1039.26 326.755C1013.05 309.984 973.29 301.359 920.879 301.359H844.521V655.472H922.234C972.838 655.472 1003.11 650.201 1030.22 635.825C1081.73 608.991 1112 550.532 1112 479.134ZM1049.65 479.134C1049.65 521.781 1031.12 559.636 1001.3 576.886C982.778 587.907 957.024 592.699 919.975 592.699H906.42V364.131H918.62C957.928 364.131 979.164 367.964 998.592 378.506C1030.22 395.757 1049.65 433.612 1049.65 479.134Z" fill="white"/>
<path d="M345.358 354.113V291.341H243.246V0H181.347V354.113H345.358Z" fill="#FCEB55"/>
<path d="M886.659 655.472L796.294 524.656C856.386 508.843 883.496 470.03 883.496 414.924C883.496 378.986 871.297 348.318 848.254 327.713C826.566 308.067 802.62 301.359 756.985 301.359H660.747V655.472H722.647V519.864L810.301 655.472H886.659ZM821.144 416.841C821.144 454.217 800.812 470.509 752.919 470.509H722.647V364.131H750.208C808.945 364.131 821.144 385.215 821.144 416.841Z" fill="white"/>
<path d="M213.26 109.253C213.26 68.5226 196.995 34.9801 168.078 16.2921C149.102 4.31263 126.962 0 82.6836 0H0V354.113H61.8998V219.464H81.78C129.221 219.464 150.909 215.63 169.434 203.651C196.543 185.921 213.26 149.983 213.26 109.253ZM150.909 110.211C150.909 140.879 135.547 156.691 79.9727 156.691H61.8998V62.7724H82.6836C130.125 62.7724 150.909 72.8352 150.909 110.211Z" fill="#FCEB55"/>
<path fill-rule="evenodd" clip-rule="evenodd" d="M445.139 49.0115L551.925 355.66H481.285H362.456L355.223 376.524L356.017 376.631L271.3 622.538H200.703L257.259 462.539H257.181L396.343 49.0115H445.139ZM385.047 282.355H456.435L420.741 157.01L385.047 282.355Z" fill="#FCEB55"/>
<path fill-rule="evenodd" clip-rule="evenodd" d="M568.699 350.37L461.913 657.018H532.553H651.382L658.615 677.883L657.821 677.99L742.538 923.896H813.135L756.579 763.898H756.657L617.496 350.37H568.699ZM628.791 583.713H557.403L593.097 458.369L628.791 583.713Z" fill="white"/>
</svg>
