<svg width="1464" height="857" viewBox="0 0 1464 857" fill="none" xmlns="http://www.w3.org/2000/svg">
<path d="M620.872 5.927H559.729L492.391 156.025L424.639 5.927H363.497L463.885 211.65V332.17H520.483V211.65L620.872 5.927Z" fill="#356969"/>
<path d="M923.008 400.726C923.008 344.618 901.256 298.13 862.627 273.283C840.875 259.257 807.873 252.042 764.369 252.042H700.988V548.207H765.493C807.497 548.207 832.623 543.798 855.126 531.776C897.879 509.333 923.008 460.439 923.008 400.726ZM871.252 400.726C871.252 436.394 855.875 468.053 831.123 482.482C815.748 491.699 794.371 495.707 763.618 495.707H752.368V304.543H762.493C795.12 304.543 812.748 307.749 828.874 316.565C855.126 330.994 871.252 362.653 871.252 400.726Z" fill="#293C43"/>
<path d="M286.661 296.165V243.663H201.905V0H150.525V296.165H286.661Z" fill="#FCEB55"/>
<path d="M735.965 548.207L660.957 438.799C710.836 425.574 733.339 393.111 733.339 347.023C733.339 316.966 723.213 291.318 704.086 274.085C686.084 257.653 666.209 252.042 628.329 252.042H548.448V548.207H599.828V434.791L672.584 548.207H735.965ZM681.585 348.626C681.585 379.886 664.709 393.513 624.954 393.513H599.828V304.543H622.705C671.459 304.543 681.585 322.176 681.585 348.626Z" fill="#293C43"/>
<path d="M177.015 91.3741C177.015 57.3092 163.514 29.2558 139.512 13.626C123.761 3.60689 105.384 0 68.6308 0H0V296.165H51.3793V183.549H67.8809C107.259 183.549 125.261 180.344 140.637 170.324C163.139 155.496 177.015 125.439 177.015 91.3741ZM125.261 92.1756C125.261 117.824 112.51 131.05 66.3807 131.05H51.3793V52.5H68.6308C108.009 52.5 125.261 60.9161 125.261 92.1756Z" fill="#FCEB55"/>
<path fill-rule="evenodd" clip-rule="evenodd" d="M369.483 40.9905L458.121 297.457H399.487H300.853L294.85 314.907L295.509 314.997L225.19 520.662H166.592L213.536 386.846H213.471L328.98 40.9905H369.483ZM319.604 236.149H378.859L349.232 131.316L319.604 236.149Z" fill="#FCEB55"/>
<path fill-rule="evenodd" clip-rule="evenodd" d="M472.043 293.034L383.407 549.499H442.041H540.675L546.678 566.951L546.019 567.04L616.337 772.706H674.936L627.992 638.89H628.058L512.546 293.034H472.043ZM521.922 488.191H462.667L492.295 383.358L521.922 488.191Z" fill="#293C43"/>
<path d="M866.818 711.128H848.722V729.362H866.818V711.128Z" fill="#FFCA10"/>
<path d="M848.722 711.128H830.625V729.362H848.722V711.128Z" fill="#FFCA10"/>
<path d="M884.915 711.128H866.818V729.362H884.915V711.128Z" fill="#FFCA10"/>
<path d="M903.011 711.128H884.915V729.362H903.011V711.128Z" fill="#FFCA10"/>
<path d="M921.108 711.128H903.011V729.362H921.108V711.128Z" fill="#FFCA10"/>
<path d="M939.204 711.128H921.107V729.362H939.204V711.128Z" fill="#FFCA10"/>
<path d="M957.301 711.128H939.204V729.362H957.301V711.128Z" fill="#FFCA10"/>
<path d="M848.722 729.362H830.625V747.596H848.722V729.362Z" fill="#FFCA10"/>
<path d="M866.818 729.362H848.722V747.596H866.818V729.362Z" fill="#FFCA10"/>
<path d="M884.915 729.362H866.818V747.596H884.915V729.362Z" fill="#FFCA10"/>
<path d="M903.011 729.362H884.915V747.596H903.011V729.362Z" fill="#FFCA10"/>
<path d="M921.108 729.362H903.011V747.596H921.108V729.362Z" fill="#FFCA10"/>
<path d="M939.204 729.362H921.107V747.596H939.204V729.362Z" fill="#FFCA10"/>
<path d="M957.301 729.362H939.204V747.596H957.301V729.362Z" fill="#FFCA10"/>
<path d="M848.722 747.596H830.625V765.83H848.722V747.596Z" fill="#FFCA10"/>
<path d="M866.818 747.596H848.722V765.83H866.818V747.596Z" fill="#FFCA10"/>
<path d="M884.915 747.596H866.818V765.83H884.915V747.596Z" fill="#FFCA10"/>
<path d="M903.011 747.596H884.915V765.83H903.011V747.596Z" fill="black"/>
<path d="M921.108 747.596H903.011V765.83H921.108V747.596Z" fill="black"/>
<path d="M939.204 747.596H921.107V765.83H939.204V747.596Z" fill="black"/>
<path d="M957.301 747.596H939.204V765.83H957.301V747.596Z" fill="black"/>
<path d="M848.722 765.83H830.625V784.064H848.722V765.83Z" fill="#FFCA10"/>
<path d="M866.818 765.83H848.722V784.064H866.818V765.83Z" fill="#FFCA10"/>
<path d="M884.915 765.83H866.818V784.064H884.915V765.83Z" fill="#FFCA10"/>
<path d="M921.108 765.83H903.011V784.064H921.108V765.83Z" fill="#FFCA10"/>
<path d="M903.011 765.83H884.915V784.064H903.011V765.83Z" fill="#FFCA10"/>
<path d="M939.204 765.83H921.107V784.064H939.204V765.83Z" fill="#FFCA10"/>
<path d="M957.301 765.83H939.204V784.064H957.301V765.83Z" fill="#FFCA10"/>
<path d="M848.722 784.064H830.625V802.298H848.722V784.064Z" fill="#FFCA10"/>
<path d="M866.818 784.064H848.722V802.298H866.818V784.064Z" fill="#FFCA10"/>
<path d="M884.915 784.064H866.818V802.298H884.915V784.064Z" fill="#FFCA10"/>
<path d="M921.108 784.064H903.011V802.298H921.108V784.064Z" fill="black"/>
<path d="M903.011 784.064H884.915V802.298H903.011V784.064Z" fill="black"/>
<path d="M939.204 784.064H921.107V802.298H939.204V784.064Z" fill="black"/>
<path d="M957.301 784.064H939.204V802.298H957.301V784.064Z" fill="black"/>
<path d="M848.722 802.298H830.625V820.532H848.722V802.298Z" fill="#FFCA10"/>
<path d="M866.818 802.298H848.722V820.532H866.818V802.298Z" fill="#FFCA10"/>
<path d="M884.915 802.298H866.818V820.532H884.915V802.298Z" fill="#FFCA10"/>
<path d="M903.011 802.298H884.915V820.532H903.011V802.298Z" fill="#FFCA10"/>
<path d="M921.108 802.298H903.011V820.532H921.108V802.298Z" fill="#FFCA10"/>
<path d="M939.204 802.298H921.107V820.532H939.204V802.298Z" fill="#FFCA10"/>
<path d="M957.301 802.298H939.204V820.532H957.301V802.298Z" fill="#FFCA10"/>
<path d="M848.722 820.532H830.625V838.766H848.722V820.532Z" fill="#FFCA10"/>
<path d="M866.818 820.532H848.722V838.766H866.818V820.532Z" fill="#FFCA10"/>
<path d="M884.915 820.532H866.818V838.766H884.915V820.532Z" fill="#FFCA10"/>
<path d="M903.011 820.532H884.915V838.766H903.011V820.532Z" fill="#FFCA10"/>
<path d="M921.108 820.532H903.011V838.766H921.108V820.532Z" fill="#FFCA10"/>
<path d="M939.204 820.532H921.107V838.766H939.204V820.532Z" fill="#FFCA10"/>
<path d="M957.301 820.532H939.204V838.766H957.301V820.532Z" fill="#FFCA10"/>
<path d="M957.301 838.766H939.204V857H957.301V838.766Z" fill="black"/>
<path d="M866.818 838.766H848.722V857H866.818V838.766Z" fill="black"/>
<path d="M848.722 838.766H830.625V857H848.722V838.766Z" fill="black"/>
<path d="M884.915 838.766H866.818V857H884.915V838.766Z" fill="black"/>
<path d="M903.011 838.766H884.915V857H903.011V838.766Z" fill="black"/>
<path d="M921.108 838.766H903.011V857H921.108V838.766Z" fill="black"/>
<path d="M939.204 838.766H921.107V857H939.204V838.766Z" fill="black"/>
<path d="M1355.42 711.128H1337.33V729.362H1355.42V711.128Z" fill="#FFCA10"/>
<path d="M1373.52 711.128H1355.42V729.362H1373.52V711.128Z" fill="#FFCA10"/>
<path d="M1391.61 711.128H1373.52V729.362H1391.61V711.128Z" fill="#FFCA10"/>
<path d="M1409.71 711.128H1391.61V729.362H1409.71V711.128Z" fill="#FFCA10"/>
<path d="M1337.32 729.362H1319.23V747.596H1337.32V729.362Z" fill="#FFCA10"/>
<path d="M1355.42 729.362H1337.33V747.596H1355.42V729.362Z" fill="#FFCA10"/>
<path d="M1373.52 729.362H1355.42V747.596H1373.52V729.362Z" fill="#FFCA10"/>
<path d="M1391.61 729.362H1373.52V747.596H1391.61V729.362Z" fill="#FFCA10"/>
<path d="M1391.61 747.596H1373.52V765.83H1391.61V747.596Z" fill="black"/>
<path d="M1427.81 729.362H1409.71V747.596H1427.81V729.362Z" fill="#FFCA10"/>
<path d="M1409.71 729.362H1391.61V747.596H1409.71V729.362Z" fill="#FFCA10"/>
<path d="M1445.9 729.362H1427.81V747.596H1445.9V729.362Z" fill="#FFCA10"/>
<path d="M1427.81 711.128H1409.71V729.362H1427.81V711.128Z" fill="#FFCA10"/>
<path d="M1337.32 747.596H1319.23V765.83H1337.32V747.596Z" fill="#FFCA10"/>
<path d="M1355.42 747.596H1337.33V765.83H1355.42V747.596Z" fill="#FFCA10"/>
<path d="M1373.52 747.596H1355.42V765.83H1373.52V747.596Z" fill="#FFCA10"/>
<path d="M1409.71 747.596H1391.61V765.83H1409.71V747.596Z" fill="#FFCA10"/>
<path d="M1427.81 747.596H1409.71V765.83H1427.81V747.596Z" fill="#FFCA10"/>
<path d="M1445.9 747.596H1427.81V765.83H1445.9V747.596Z" fill="#FFCA10"/>
<path d="M1337.32 765.83H1319.23V784.064H1337.32V765.83Z" fill="#FFCA10"/>
<path d="M1355.42 765.83H1337.33V784.064H1355.42V765.83Z" fill="#FFCA10"/>
<path d="M1373.52 765.83H1355.42V784.064H1373.52V765.83Z" fill="#FFCA10"/>
<path d="M1409.71 765.83H1391.61V784.064H1409.71V765.83Z" fill="#FFCA10"/>
<path d="M1427.81 765.83H1409.71V784.064H1427.81V765.83Z" fill="#FFCA10"/>
<path d="M1445.9 765.83H1427.81V784.064H1445.9V765.83Z" fill="#FFCA10"/>
<path d="M1337.32 784.064H1319.23V802.298H1337.32V784.064Z" fill="#FFCA10"/>
<path d="M1355.42 784.064H1337.33V802.298H1355.42V784.064Z" fill="#FFCA10"/>
<path d="M1373.52 784.064H1355.42V802.298H1373.52V784.064Z" fill="#FFCA10"/>
<path d="M1409.71 784.064H1391.61V802.298H1409.71V784.064Z" fill="#FFCA10"/>
<path d="M1427.81 784.064H1409.71V802.298H1427.81V784.064Z" fill="#FFCA10"/>
<path d="M1445.9 784.064H1427.81V802.298H1445.9V784.064Z" fill="#FFCA10"/>
<path d="M1337.32 802.298H1319.23V820.532H1337.32V802.298Z" fill="#FFCA10"/>
<path d="M1355.42 802.298H1337.33V820.532H1355.42V802.298Z" fill="#FFCA10"/>
<path d="M1373.52 802.298H1355.42V820.532H1373.52V802.298Z" fill="#FFCA10"/>
<path d="M1391.61 802.298H1373.52V820.532H1391.61V802.298Z" fill="#FFCA10"/>
<path d="M1409.71 802.298H1391.61V820.532H1409.71V802.298Z" fill="#FFCA10"/>
<path d="M1427.81 802.298H1409.71V820.532H1427.81V802.298Z" fill="#FFCA10"/>
<path d="M1445.9 802.298H1427.81V820.532H1445.9V802.298Z" fill="#FFCA10"/>
<path d="M1337.32 820.532H1319.23V838.766H1337.32V820.532Z" fill="black"/>
<path d="M1355.42 820.532H1337.33V838.766H1355.42V820.532Z" fill="#FFCA10"/>
<path d="M1373.52 820.532H1355.42V838.766H1373.52V820.532Z" fill="#FFCA10"/>
<path d="M1391.61 820.532H1373.52V838.766H1391.61V820.532Z" fill="#FFCA10"/>
<path d="M1409.71 820.532H1391.61V838.766H1409.71V820.532Z" fill="#FFCA10"/>
<path d="M1427.81 820.532H1409.71V838.766H1427.81V820.532Z" fill="#FFCA10"/>
<path d="M1445.9 820.532H1427.81V838.766H1445.9V820.532Z" fill="black"/>
<path d="M1355.42 838.766H1337.33V857H1355.42V838.766Z" fill="black"/>
<path d="M1373.52 838.766H1355.42V857H1373.52V838.766Z" fill="black"/>
<path d="M1391.61 838.766H1373.52V857H1391.61V838.766Z" fill="black"/>
<path d="M1409.71 838.766H1391.61V857H1409.71V838.766Z" fill="black"/>
<path d="M1427.81 838.766H1409.71V857H1427.81V838.766Z" fill="black"/>
<path d="M703.95 711.128H685.854V729.362H703.95V711.128Z" fill="#FFCA10"/>
<path d="M685.854 711.128H667.758V729.362H685.854V711.128Z" fill="#FFCA10"/>
<path d="M722.047 711.128H703.951V729.362H722.047V711.128Z" fill="#FFCA10"/>
<path d="M740.143 711.128H722.047V729.362H740.143V711.128Z" fill="#FFCA10"/>
<path d="M758.24 711.128H740.144V729.362H758.24V711.128Z" fill="#FFCA10"/>
<path d="M685.854 729.362H667.758V747.596H685.854V729.362Z" fill="#FFCA10"/>
<path d="M703.95 729.362H685.854V747.596H703.95V729.362Z" fill="#FFCA10"/>
<path d="M722.047 729.362H703.951V747.596H722.047V729.362Z" fill="#FFCA10"/>
<path d="M740.143 729.362H722.047V747.596H740.143V729.362Z" fill="#FFCA10"/>
<path d="M740.143 747.596H722.047V765.83H740.143V747.596Z" fill="black"/>
<path d="M776.336 729.362H758.24V747.596H776.336V729.362Z" fill="#FFCA10"/>
<path d="M758.24 729.362H740.144V747.596H758.24V729.362Z" fill="#FFCA10"/>
<path d="M794.433 729.362H776.336V747.596H794.433V729.362Z" fill="#FFCA10"/>
<path d="M776.336 711.128H758.24V729.362H776.336V711.128Z" fill="#FFCA10"/>
<path d="M685.854 747.596H667.758V765.83H685.854V747.596Z" fill="#FFCA10"/>
<path d="M703.95 747.596H685.854V765.83H703.95V747.596Z" fill="#FFCA10"/>
<path d="M722.047 747.596H703.951V765.83H722.047V747.596Z" fill="#FFCA10"/>
<path d="M758.24 747.596H740.144V765.83H758.24V747.596Z" fill="#FFCA10"/>
<path d="M776.336 747.596H758.24V765.83H776.336V747.596Z" fill="#FFCA10"/>
<path d="M794.433 747.596H776.336V765.83H794.433V747.596Z" fill="#FFCA10"/>
<path d="M685.854 765.83H667.758V784.064H685.854V765.83Z" fill="#FFCA10"/>
<path d="M703.95 765.83H685.854V784.064H703.95V765.83Z" fill="#FFCA10"/>
<path d="M722.047 765.83H703.951V784.064H722.047V765.83Z" fill="#FFCA10"/>
<path d="M758.24 765.83H740.144V784.064H758.24V765.83Z" fill="#FFCA10"/>
<path d="M776.336 765.83H758.24V784.064H776.336V765.83Z" fill="#FFCA10"/>
<path d="M794.433 765.83H776.336V784.064H794.433V765.83Z" fill="#FFCA10"/>
<path d="M685.854 784.064H667.758V802.298H685.854V784.064Z" fill="#FFCA10"/>
<path d="M703.95 784.064H685.854V802.298H703.95V784.064Z" fill="#FFCA10"/>
<path d="M722.047 784.064H703.951V802.298H722.047V784.064Z" fill="#FFCA10"/>
<path d="M758.24 784.064H740.144V802.298H758.24V784.064Z" fill="#FFCA10"/>
<path d="M776.336 784.064H758.24V802.298H776.336V784.064Z" fill="#FFCA10"/>
<path d="M794.433 784.064H776.336V802.298H794.433V784.064Z" fill="black"/>
<path d="M685.854 802.298H667.758V820.532H685.854V802.298Z" fill="#FFCA10"/>
<path d="M685.854 820.532H667.758V838.766H685.854V820.532Z" fill="#FFCA10"/>
<path d="M703.95 802.298H685.854V820.532H703.95V802.298Z" fill="#FFCA10"/>
<path d="M722.047 802.298H703.951V820.532H722.047V802.298Z" fill="#FFCA10"/>
<path d="M740.143 784.064H722.047V802.298H740.143V784.064Z" fill="#FFCA10"/>
<path d="M758.24 802.298H740.144V820.532H758.24V802.298Z" fill="#FFCA10"/>
<path d="M776.336 802.298H758.24V820.532H776.336V802.298Z" fill="#FFCA10"/>
<path d="M794.433 802.298H776.336V820.532H794.433V802.298Z" fill="#FFCA10"/>
<path d="M685.854 838.766H667.758V857H685.854V838.766Z" fill="black"/>
<path d="M703.95 820.532H685.854V838.766H703.95V820.532Z" fill="#FFCA10"/>
<path d="M722.047 820.532H703.951V838.766H722.047V820.532Z" fill="#FFCA10"/>
<path d="M740.143 802.298H722.047V820.532H740.143V802.298Z" fill="#FFCA10"/>
<path d="M758.24 820.532H740.144V838.766H758.24V820.532Z" fill="#FFCA10"/>
<path d="M776.336 820.532H758.24V838.766H776.336V820.532Z" fill="#FFCA10"/>
<path d="M794.433 820.532H776.336V838.766H794.433V820.532Z" fill="#FFCA10"/>
<path d="M794.433 838.766H776.336V857H794.433V838.766Z" fill="black"/>
<path d="M703.95 838.766H685.854V857H703.95V838.766Z" fill="black"/>
<path d="M722.047 838.766H703.951V857H722.047V838.766Z" fill="black"/>
<path d="M740.143 820.532H722.047V838.766H740.143V820.532Z" fill="black"/>
<path d="M758.24 838.766H740.144V857H758.24V838.766Z" fill="black"/>
<path d="M776.336 838.766H758.24V857H776.336V838.766Z" fill="black"/>
<path d="M703.95 711.128H685.854V729.362H703.95V711.128Z" fill="#FFCA10"/>
<path d="M685.854 711.128H667.758V729.362H685.854V711.128Z" fill="#FFCA10"/>
<path d="M722.047 711.128H703.951V729.362H722.047V711.128Z" fill="#FFCA10"/>
<path d="M740.143 711.128H722.047V729.362H740.143V711.128Z" fill="#FFCA10"/>
<path d="M758.24 711.128H740.144V729.362H758.24V711.128Z" fill="#FFCA10"/>
<path d="M685.854 729.362H667.758V747.596H685.854V729.362Z" fill="#FFCA10"/>
<path d="M703.95 729.362H685.854V747.596H703.95V729.362Z" fill="#FFCA10"/>
<path d="M722.047 729.362H703.951V747.596H722.047V729.362Z" fill="#FFCA10"/>
<path d="M740.143 729.362H722.047V747.596H740.143V729.362Z" fill="#FFCA10"/>
<path d="M740.143 747.596H722.047V765.83H740.143V747.596Z" fill="black"/>
<path d="M776.336 729.362H758.24V747.596H776.336V729.362Z" fill="#FFCA10"/>
<path d="M758.24 729.362H740.144V747.596H758.24V729.362Z" fill="#FFCA10"/>
<path d="M794.433 729.362H776.336V747.596H794.433V729.362Z" fill="#FFCA10"/>
<path d="M776.336 711.128H758.24V729.362H776.336V711.128Z" fill="#FFCA10"/>
<path d="M685.854 747.596H667.758V765.83H685.854V747.596Z" fill="#FFCA10"/>
<path d="M703.95 747.596H685.854V765.83H703.95V747.596Z" fill="#FFCA10"/>
<path d="M722.047 747.596H703.951V765.83H722.047V747.596Z" fill="#FFCA10"/>
<path d="M758.24 747.596H740.144V765.83H758.24V747.596Z" fill="#FFCA10"/>
<path d="M776.336 747.596H758.24V765.83H776.336V747.596Z" fill="#FFCA10"/>
<path d="M794.433 747.596H776.336V765.83H794.433V747.596Z" fill="#FFCA10"/>
<path d="M685.854 765.83H667.758V784.064H685.854V765.83Z" fill="#FFCA10"/>
<path d="M703.95 765.83H685.854V784.064H703.95V765.83Z" fill="#FFCA10"/>
<path d="M722.047 765.83H703.951V784.064H722.047V765.83Z" fill="#FFCA10"/>
<path d="M758.24 765.83H740.144V784.064H758.24V765.83Z" fill="#FFCA10"/>
<path d="M776.336 765.83H758.24V784.064H776.336V765.83Z" fill="#FFCA10"/>
<path d="M794.433 765.83H776.336V784.064H794.433V765.83Z" fill="#FFCA10"/>
<path d="M685.854 784.064H667.758V802.298H685.854V784.064Z" fill="#FFCA10"/>
<path d="M703.95 784.064H685.854V802.298H703.95V784.064Z" fill="#FFCA10"/>
<path d="M722.047 784.064H703.951V802.298H722.047V784.064Z" fill="#FFCA10"/>
<path d="M758.24 784.064H740.144V802.298H758.24V784.064Z" fill="#FFCA10"/>
<path d="M776.336 784.064H758.24V802.298H776.336V784.064Z" fill="#FFCA10"/>
<path d="M794.433 784.064H776.336V802.298H794.433V784.064Z" fill="black"/>
<path d="M685.854 802.298H667.758V820.532H685.854V802.298Z" fill="#FFCA10"/>
<path d="M685.854 820.532H667.758V838.766H685.854V820.532Z" fill="#FFCA10"/>
<path d="M703.95 802.298H685.854V820.532H703.95V802.298Z" fill="#FFCA10"/>
<path d="M722.047 802.298H703.951V820.532H722.047V802.298Z" fill="#FFCA10"/>
<path d="M740.143 784.064H722.047V802.298H740.143V784.064Z" fill="#FFCA10"/>
<path d="M758.24 802.298H740.144V820.532H758.24V802.298Z" fill="#FFCA10"/>
<path d="M776.336 802.298H758.24V820.532H776.336V802.298Z" fill="#FFCA10"/>
<path d="M794.433 802.298H776.336V820.532H794.433V802.298Z" fill="#FFCA10"/>
<path d="M685.854 838.766H667.758V857H685.854V838.766Z" fill="black"/>
<path d="M703.95 820.532H685.854V838.766H703.95V820.532Z" fill="#FFCA10"/>
<path d="M722.047 820.532H703.951V838.766H722.047V820.532Z" fill="#FFCA10"/>
<path d="M740.143 802.298H722.047V820.532H740.143V802.298Z" fill="#FFCA10"/>
<path d="M758.24 820.532H740.144V838.766H758.24V820.532Z" fill="#FFCA10"/>
<path d="M776.336 820.532H758.24V838.766H776.336V820.532Z" fill="#FFCA10"/>
<path d="M794.433 820.532H776.336V838.766H794.433V820.532Z" fill="#FFCA10"/>
<path d="M794.433 838.766H776.336V857H794.433V838.766Z" fill="black"/>
<path d="M703.95 838.766H685.854V857H703.95V838.766Z" fill="black"/>
<path d="M722.047 838.766H703.951V857H722.047V838.766Z" fill="black"/>
<path d="M740.143 820.532H722.047V838.766H740.143V820.532Z" fill="black"/>
<path d="M758.24 838.766H740.144V857H758.24V838.766Z" fill="black"/>
<path d="M776.336 838.766H758.24V857H776.336V838.766Z" fill="black"/>
<path d="M1192.55 711.128H1174.46V729.362H1192.55V711.128Z" fill="#FFCA10"/>
<path d="M1174.46 711.128H1156.36V729.362H1174.46V711.128Z" fill="#FFCA10"/>
<path d="M1210.65 711.128H1192.55V729.362H1210.65V711.128Z" fill="#FFCA10"/>
<path d="M1228.75 711.128H1210.65V729.362H1228.75V711.128Z" fill="#FFCA10"/>
<path d="M1246.84 711.128H1228.75V729.362H1246.84V711.128Z" fill="#FFCA10"/>
<path d="M1174.46 729.362H1156.36V747.596H1174.46V729.362Z" fill="#FFCA10"/>
<path d="M1192.55 729.362H1174.46V747.596H1192.55V729.362Z" fill="#FFCA10"/>
<path d="M1210.65 729.362H1192.55V747.596H1210.65V729.362Z" fill="#FFCA10"/>
<path d="M1228.75 729.362H1210.65V747.596H1228.75V729.362Z" fill="#FFCA10"/>
<path d="M1228.75 747.596H1210.65V765.83H1228.75V747.596Z" fill="black"/>
<path d="M1264.94 729.362H1246.84V747.596H1264.94V729.362Z" fill="#FFCA10"/>
<path d="M1246.84 729.362H1228.75V747.596H1246.84V729.362Z" fill="#FFCA10"/>
<path d="M1283.04 729.362H1264.94V747.596H1283.04V729.362Z" fill="#FFCA10"/>
<path d="M1264.94 711.128H1246.84V729.362H1264.94V711.128Z" fill="#FFCA10"/>
<path d="M1174.46 747.596H1156.36V765.83H1174.46V747.596Z" fill="#FFCA10"/>
<path d="M1192.55 747.596H1174.46V765.83H1192.55V747.596Z" fill="#FFCA10"/>
<path d="M1210.65 747.596H1192.55V765.83H1210.65V747.596Z" fill="#FFCA10"/>
<path d="M1246.84 747.596H1228.75V765.83H1246.84V747.596Z" fill="#FFCA10"/>
<path d="M1264.94 747.596H1246.84V765.83H1264.94V747.596Z" fill="#FFCA10"/>
<path d="M1283.04 747.596H1264.94V765.83H1283.04V747.596Z" fill="#FFCA10"/>
<path d="M1174.46 765.83H1156.36V784.064H1174.46V765.83Z" fill="#FFCA10"/>
<path d="M1192.55 765.83H1174.46V784.064H1192.55V765.83Z" fill="#FFCA10"/>
<path d="M1210.65 765.83H1192.55V784.064H1210.65V765.83Z" fill="#FFCA10"/>
<path d="M1246.84 765.83H1228.75V784.064H1246.84V765.83Z" fill="#FFCA10"/>
<path d="M1264.94 765.83H1246.84V784.064H1264.94V765.83Z" fill="#FFCA10"/>
<path d="M1283.04 765.83H1264.94V784.064H1283.04V765.83Z" fill="#FFCA10"/>
<path d="M1174.46 784.064H1156.36V802.298H1174.46V784.064Z" fill="#FFCA10"/>
<path d="M1192.55 784.064H1174.46V802.298H1192.55V784.064Z" fill="#FFCA10"/>
<path d="M1210.65 784.064H1192.55V802.298H1210.65V784.064Z" fill="#FFCA10"/>
<path d="M1246.84 784.064H1228.75V802.298H1246.84V784.064Z" fill="#FFCA10"/>
<path d="M1264.94 784.064H1246.84V802.298H1264.94V784.064Z" fill="#FFCA10"/>
<path d="M1283.04 784.064H1264.94V802.298H1283.04V784.064Z" fill="black"/>
<path d="M1174.46 802.298H1156.36V820.532H1174.46V802.298Z" fill="#FFCA10"/>
<path d="M1174.46 820.532H1156.36V838.766H1174.46V820.532Z" fill="#FFCA10"/>
<path d="M1192.55 802.298H1174.46V820.532H1192.55V802.298Z" fill="#FFCA10"/>
<path d="M1210.65 802.298H1192.55V820.532H1210.65V802.298Z" fill="#FFCA10"/>
<path d="M1228.75 784.064H1210.65V802.298H1228.75V784.064Z" fill="#FFCA10"/>
<path d="M1246.84 802.298H1228.75V820.532H1246.84V802.298Z" fill="#FFCA10"/>
<path d="M1264.94 802.298H1246.84V820.532H1264.94V802.298Z" fill="#FFCA10"/>
<path d="M1283.04 802.298H1264.94V820.532H1283.04V802.298Z" fill="#FFCA10"/>
<path d="M1174.46 838.766H1156.36V857H1174.46V838.766Z" fill="black"/>
<path d="M1192.55 820.532H1174.46V838.766H1192.55V820.532Z" fill="#FFCA10"/>
<path d="M1210.65 820.532H1192.55V838.766H1210.65V820.532Z" fill="#FFCA10"/>
<path d="M1228.75 802.298H1210.65V820.532H1228.75V802.298Z" fill="#FFCA10"/>
<path d="M1246.84 820.532H1228.75V838.766H1246.84V820.532Z" fill="#FFCA10"/>
<path d="M1264.94 820.532H1246.84V838.766H1264.94V820.532Z" fill="#FFCA10"/>
<path d="M1283.04 820.532H1264.94V838.766H1283.04V820.532Z" fill="#FFCA10"/>
<path d="M1283.04 838.766H1264.94V857H1283.04V838.766Z" fill="black"/>
<path d="M1192.55 838.766H1174.46V857H1192.55V838.766Z" fill="black"/>
<path d="M1210.65 838.766H1192.55V857H1210.65V838.766Z" fill="black"/>
<path d="M1228.75 820.532H1210.65V838.766H1228.75V820.532Z" fill="black"/>
<path d="M1246.84 838.766H1228.75V857H1246.84V838.766Z" fill="black"/>
<path d="M1264.94 838.766H1246.84V857H1264.94V838.766Z" fill="black"/>
<path d="M1011.59 711.128H993.493V729.362H1011.59V711.128Z" fill="#FFCA10"/>
<path d="M1083.98 711.128H1065.88V729.362H1083.98V711.128Z" fill="#FFCA10"/>
<path d="M1065.88 711.128H1047.78V729.362H1065.88V711.128Z" fill="#FFCA10"/>
<path d="M1029.69 711.128H1011.59V729.362H1029.69V711.128Z" fill="#FFCA10"/>
<path d="M1102.07 711.128H1083.98V729.362H1102.07V711.128Z" fill="#FFCA10"/>
<path d="M1047.78 711.128H1029.69V729.362H1047.78V711.128Z" fill="#FFCA10"/>
<path d="M1120.17 711.128H1102.07V729.362H1120.17V711.128Z" fill="#FFCA10"/>
<path d="M1047.78 729.362H1029.69V747.596H1047.78V729.362Z" fill="#FFCA10"/>
<path d="M1120.17 729.362H1102.07V747.596H1120.17V729.362Z" fill="#FFCA10"/>
<path d="M1011.59 729.362H993.493V747.596H1011.59V729.362Z" fill="#FFCA10"/>
<path d="M1083.98 729.362H1065.88V747.596H1083.98V729.362Z" fill="#FFCA10"/>
<path d="M1065.88 729.362H1047.78V747.596H1065.88V729.362Z" fill="#FFCA10"/>
<path d="M1011.59 747.596H993.493V765.83H1011.59V747.596Z" fill="black"/>
<path d="M1083.98 747.596H1065.88V765.83H1083.98V747.596Z" fill="#FFCA10"/>
<path d="M1065.88 747.596H1047.78V765.83H1065.88V747.596Z" fill="#FFCA10"/>
<path d="M1029.69 729.362H1011.59V747.596H1029.69V729.362Z" fill="#FFCA10"/>
<path d="M1102.07 729.362H1083.98V747.596H1102.07V729.362Z" fill="#FFCA10"/>
<path d="M1029.69 747.596H1011.59V765.83H1029.69V747.596Z" fill="black"/>
<path d="M1102.07 747.596H1083.98V765.83H1102.07V747.596Z" fill="black"/>
<path d="M1047.78 747.596H1029.69V765.83H1047.78V747.596Z" fill="#FFCA10"/>
<path d="M1120.17 747.596H1102.07V765.83H1120.17V747.596Z" fill="black"/>
<path d="M1065.88 765.83H1047.78V784.064H1065.88V765.83Z" fill="#FFCA10"/>
<path d="M1047.78 765.83H1029.69V784.064H1047.78V765.83Z" fill="#FFCA10"/>
<path d="M1083.98 765.83H1065.88V784.064H1083.98V765.83Z" fill="#FFCA10"/>
<path d="M1047.78 784.064H1029.69V802.298H1047.78V784.064Z" fill="#FFCA10"/>
<path d="M1065.88 784.064H1047.78V802.298H1065.88V784.064Z" fill="#FFCA10"/>
<path d="M1083.98 784.064H1065.88V802.298H1083.98V784.064Z" fill="#FFCA10"/>
<path d="M1047.78 802.298H1029.69V820.532H1047.78V802.298Z" fill="#FFCA10"/>
<path d="M1065.88 802.298H1047.78V820.532H1065.88V802.298Z" fill="#FFCA10"/>
<path d="M1083.98 802.298H1065.88V820.532H1083.98V802.298Z" fill="#FFCA10"/>
<path d="M1047.78 820.532H1029.69V838.766H1047.78V820.532Z" fill="#FFCA10"/>
<path d="M1065.88 820.532H1047.78V838.766H1065.88V820.532Z" fill="#FFCA10"/>
<path d="M1083.98 820.532H1065.88V838.766H1083.98V820.532Z" fill="#FFCA10"/>
<path d="M1047.78 838.766H1029.69V857H1047.78V838.766Z" fill="black"/>
<path d="M1065.88 838.766H1047.78V857H1065.88V838.766Z" fill="black"/>
<path d="M1083.98 838.766H1065.88V857H1083.98V838.766Z" fill="black"/>
</svg>
