<svg width="1116" height="934" viewBox="0 0 1116 934" fill="none" xmlns="http://www.w3.org/2000/svg">
<path d="M750 7H676.118L594.749 188.733L512.882 7H439L560.305 256.08V402H628.695V256.08L750 7Z" fill="#356969"/>
<path d="M1116 484.727C1116 416.905 1089.65 360.711 1042.84 330.676C1016.49 313.722 976.502 305 923.793 305H847V663H925.154C976.046 663 1006.49 657.67 1033.75 643.139C1085.55 616.011 1116 556.907 1116 484.727ZM1053.29 484.727C1053.29 527.842 1034.66 566.112 1004.67 583.553C986.044 594.695 960.143 599.539 922.883 599.539H909.251V368.463H921.519C961.051 368.463 982.409 372.338 1001.95 382.995C1033.75 400.436 1053.29 438.706 1053.29 484.727Z" fill="#293C43"/>
<path d="M346 358V294.537H243.896V0H182V358H346Z" fill="#FCEB55"/>
<path d="M890 663L799.199 530.749C859.58 514.763 886.821 475.523 886.821 419.812C886.821 383.479 874.562 352.476 851.409 331.645C829.616 311.782 805.556 305 759.701 305H663V663H725.198V525.904L813.274 663H890ZM824.17 421.749C824.17 459.537 803.74 476.008 755.615 476.008H725.198V368.463H752.892C811.911 368.463 824.17 389.777 824.17 421.749Z" fill="#293C43"/>
<path d="M214 110.452C214 69.2747 197.678 35.364 168.661 16.4709C149.619 4.35997 127.403 0 82.9703 0H0V358H62.1143V221.872H82.0637C129.67 221.872 151.432 217.997 170.021 205.886C197.225 187.962 214 151.629 214 110.452ZM151.432 111.421C151.432 142.425 136.017 158.411 80.2501 158.411H62.1143V63.4613H82.9703C130.576 63.4613 151.432 73.6346 151.432 111.421Z" fill="#FCEB55"/>
<path fill-rule="evenodd" clip-rule="evenodd" d="M446.672 50L554 359.575H483.003H363.57L356.302 380.638L357.1 380.746L271.954 629H201L257.842 467.474H257.763L397.628 50H446.672ZM386.276 285.571H458.025L422.15 159.029L386.276 285.571Z" fill="#FCEB55"/>
<path fill-rule="evenodd" clip-rule="evenodd" d="M570.326 354L463 664.108H533.997H653.43L660.698 685.21L659.9 685.318L745.044 934H816L759.158 772.195H759.237L619.369 354H570.326ZM630.722 589.976H558.973L594.847 463.216L630.722 589.976Z" fill="#293C43"/>
</svg>
